<svg width="24" height="24" viewBox="0 0 24 24" xmlns="http://www.w3.org/2000/svg" focusable="false"><g fill="none"><path d="M12.032 23.013c-6.075 0-11-4.925-11-11 0-6.076 4.925-11 11-11s11 4.924 11 11c0 6.075-4.925 11-11 11z" fill="#FFF"></path><path opacity="0" d="M12 21.5a9.53 9.53 0 002.098-.233l-.22-.975A8.53 8.53 0 0112 20.5v1zm3.123-.525a9.461 9.461 0 001.904-.913l-.53-.848a8.461 8.461 0 01-1.703.816l.329.945zm2.774-1.527a9.554 9.554 0 001.499-1.485l-.778-.628a8.554 8.554 0 01-1.342 1.33l.621.783zm2.152-2.4a9.462 9.462 0 00.917-1.901l-.943-.331a8.462 8.462 0 01-.82 1.7l.846.533zm1.2-2.87a9.52 9.52 0 00.25-2.095l-1-.009a8.52 8.52 0 01-.224 1.876l.974.229zm.199-3.181a9.45 9.45 0 00-.454-2.063l-.946.323a8.45 8.45 0 01.405 1.844l.995-.104zm-.862-3.068a9.502 9.502 0 00-1.112-1.794l-.786.618a8.54 8.54 0 01.995 1.605l.903-.429zm-1.814-2.591a9.543 9.543 0 00-1.637-1.332l-.541.84A8.543 8.543 0 0118.06 6.04l.712-.701zm-2.634-1.892a9.434 9.434 0 00-1.992-.702l-.225.974a8.434 8.434 0 011.78.628l.437-.9zm-2.964-.874a9.588 9.588 0 00-2.126-.025l.1.995a8.704 8.704 0 011.904.022l.122-.992zm-3.172.139A9.433 9.433 0 008 3.38l.421.907a8.433 8.433 0 011.79-.6l-.209-.977zM7.02 3.909c-.6.37-1.158.807-1.663 1.3l.7.715A8.51 8.51 0 017.545 4.76l-.525-.85zM4.646 5.985a9.51 9.51 0 00-1.148 1.772l.894.447A8.51 8.51 0 015.42 6.62l-.774-.634zM3.042 8.831a9.446 9.446 0 00-.478 2.057l.994.116a8.455 8.455 0 01.426-1.84l-.942-.333zm-.54 3.013l-.002.153c0 .663.067 1.315.2 1.951l.979-.204a8.546 8.546 0 01-.179-1.747l.001-.137-1-.016zm.474 3.132a9.5 9.5 0 00.88 1.92l.857-.517a8.456 8.456 0 01-.788-1.716l-.95.313zm1.48 2.8c.43.56.92 1.07 1.462 1.522l.64-.768a8.554 8.554 0 01-1.308-1.363l-.793.609zm2.362 2.187a9.468 9.468 0 001.886.95l.347-.938a8.468 8.468 0 01-1.687-.85l-.546.838zm2.853 1.25c.68.17 1.38.267 2.092.284l.024-1a8.504 8.504 0 01-1.871-.254l-.245.97z" fill="#333"></path><path d="M12.032 22.063c5.55 0 10.05-4.5 10.05-10.05 0-5.55-4.5-10.05-10.05-10.05-5.55 0-10.05 4.5-10.05 10.05 0 5.55 4.5 10.05 10.05 10.05zm0 .95c-6.075 0-11-4.925-11-11 0-6.076 4.925-11 11-11s11 4.924 11 11c0 6.075-4.925 11-11 11z" fill-opacity=".6" fill="#333"></path><path fill="#333" d="M13.325 12.014L9.083 7.772l1.414-1.415 5.657 5.657-5.657 5.657-1.414-1.414z"></path></g></svg>